<?xml version="1.0" encoding="UTF-8" standalone="no"?><!DOCTYPE svg PUBLIC "-//W3C//DTD SVG 1.1//EN" "http://www.w3.org/Graphics/SVG/1.1/DTD/svg11.dtd"><svg width="100%" height="100%" viewBox="0 0 150 150" version="1.1" xmlns="http://www.w3.org/2000/svg" xmlns:xlink="http://www.w3.org/1999/xlink" xml:space="preserve" xmlns:serif="http://www.serif.com/" style="fill-rule:evenodd;clip-rule:evenodd;stroke-linejoin:round;stroke-miterlimit:2;"><rect id="Artboard1" x="0" y="0" width="150" height="150" style="fill:none;"/><path d="M65.997,41.559c0.141,0.007 0.281,0.014 0.425,0.022c0.128,0.39 0.128,0.39 0.179,0.894c-0.263,0.453 -0.263,0.453 -0.626,0.904c-0.497,0.566 -0.497,0.566 -0.601,1.267c0.311,0.666 0.919,1.116 1.472,1.582c0.291,0.357 0.291,0.357 0.246,0.848c-0.044,0.133 -0.088,0.266 -0.134,0.403c-0.308,0.12 -0.308,0.12 -0.715,0.178c-0.39,-0.198 -0.39,-0.198 -0.793,-0.491c-0.139,-0.099 -0.279,-0.198 -0.423,-0.3c-0.129,-0.093 -0.259,-0.186 -0.392,-0.281c-0.296,-0.181 -0.593,-0.362 -0.894,-0.536c-0.103,0.126 -0.103,0.126 -0.209,0.255c-1.057,1.263 -1.057,1.263 -1.578,1.532c-0.491,-0.056 -0.491,-0.056 -0.893,-0.179c0.048,-1.171 0.502,-1.799 1.251,-2.68c-0.248,-0.543 -0.547,-0.962 -0.928,-1.419c-0.505,-0.655 -0.505,-0.655 -0.48,-1.262c0.052,-0.118 0.103,-0.236 0.157,-0.358c0.713,0.101 1.166,0.314 1.753,0.726c0.141,0.098 0.283,0.196 0.428,0.297c0.159,0.113 0.159,0.113 0.321,0.228c0.674,-0.31 1.096,-0.711 1.608,-1.251c0.357,-0.357 0.357,-0.357 0.826,-0.379Z" style="fill:#34d399;fill-rule:nonzero;"/><path d="M71.132,53.895c0.066,0.004 0.133,0.007 0.201,0.011c0.061,0.184 0.061,0.184 0.084,0.423c-0.124,0.214 -0.124,0.214 -0.296,0.428c-0.235,0.268 -0.235,0.268 -0.284,0.6c0.147,0.315 0.435,0.528 0.697,0.748c0.137,0.169 0.137,0.169 0.116,0.402c-0.021,0.063 -0.042,0.125 -0.063,0.19c-0.146,0.057 -0.146,0.057 -0.339,0.085c-0.184,-0.094 -0.184,-0.094 -0.375,-0.233c-0.066,-0.047 -0.132,-0.094 -0.2,-0.142c-0.062,-0.044 -0.123,-0.088 -0.186,-0.133c-0.14,-0.086 -0.281,-0.171 -0.423,-0.254c-0.049,0.06 -0.049,0.06 -0.099,0.121c-0.5,0.598 -0.5,0.598 -0.747,0.725c-0.232,-0.026 -0.232,-0.026 -0.423,-0.084c0.023,-0.555 0.238,-0.852 0.592,-1.269c-0.117,-0.257 -0.258,-0.455 -0.438,-0.671c-0.24,-0.31 -0.24,-0.31 -0.228,-0.598c0.025,-0.056 0.049,-0.112 0.074,-0.169c0.338,0.047 0.552,0.149 0.83,0.344c0.067,0.046 0.134,0.092 0.203,0.14c0.075,0.053 0.075,0.053 0.152,0.108c0.319,-0.147 0.518,-0.337 0.761,-0.592c0.169,-0.169 0.169,-0.169 0.391,-0.18Z" style="fill:#34d399;fill-rule:nonzero;"/><path d="M83.757,35.326c0.063,0.531 0.097,0.922 -0.199,1.382c-0.222,0.263 -0.458,0.514 -0.695,0.763c0.2,0.449 0.406,0.772 0.726,1.15c0.359,0.475 0.476,0.764 0.525,1.352c-0.178,0.178 -0.178,0.178 -0.625,0.268c-0.949,-0.136 -1.526,-0.724 -2.234,-1.341c-0.051,0.11 -0.101,0.22 -0.153,0.333c-0.28,0.523 -0.604,0.775 -1.098,1.097c-0.492,0.056 -0.492,0.056 -0.894,0c-0.178,-0.179 -0.178,-0.179 -0.257,-0.558c0.119,-0.779 0.616,-1.213 1.151,-1.765c-0.213,-0.454 -0.403,-0.767 -0.737,-1.151c-0.374,-0.511 -0.406,-0.734 -0.335,-1.351c0.94,-0.115 1.373,0.142 2.087,0.698c0.078,0.064 0.156,0.129 0.236,0.195c0.455,-0.202 0.771,-0.406 1.15,-0.737c0.512,-0.374 0.735,-0.405 1.352,-0.335Z" style="fill:#34d399;fill-rule:nonzero;"/><path d="M73.179,27.061c0.129,0.015 0.258,0.029 0.391,0.044c0.134,0.391 0.134,0.391 0.179,0.894c-0.235,0.301 -0.473,0.599 -0.715,0.894c0.015,0.496 0.151,0.681 0.469,1.061c0.246,0.368 0.246,0.368 0.19,0.86c-0.04,0.132 -0.081,0.265 -0.123,0.402c-1.206,-0.134 -1.206,-0.134 -1.608,-0.536c-0.473,0.047 -0.695,0.162 -1.061,0.469c-0.369,0.246 -0.369,0.246 -0.86,0.19c-0.133,-0.041 -0.266,-0.081 -0.402,-0.123c0.134,-1.206 0.134,-1.206 0.536,-1.609c-0.07,-0.538 -0.226,-0.785 -0.536,-1.251c0.067,-0.48 0.067,-0.48 0.178,-0.893c1.21,0.163 1.21,0.163 1.631,0.324c0.691,0.069 0.999,-0.661 1.731,-0.726Z" style="fill:#34d399;fill-rule:nonzero;"/><path d="M76.251,46.942c0.997,0.565 0.997,0.565 1.251,1.073c0.022,0.816 -0.03,1.428 -0.559,2.066c-0.652,0.326 -1.043,0.36 -1.764,0.257c-0.492,-0.321 -0.809,-0.546 -1.073,-1.072c-0.07,-0.748 -0.08,-1.128 0.336,-1.765c0.596,-0.596 0.975,-0.639 1.809,-0.559Z" style="fill:#34d399;fill-rule:nonzero;"/><path d="M81.02,22.937c0.612,0.346 0.612,0.346 0.769,0.659c0.013,0.501 -0.019,0.878 -0.344,1.27c-0.401,0.2 -0.641,0.221 -1.084,0.158c-0.303,-0.198 -0.498,-0.336 -0.659,-0.659c-0.044,-0.46 -0.05,-0.694 0.206,-1.085c0.366,-0.366 0.599,-0.393 1.112,-0.343Z" style="fill:#34d399;fill-rule:nonzero;"/><path d="M82.327,52.125c0.995,0.102 0.995,0.102 1.251,0.357c0.053,0.507 0.064,0.794 -0.212,1.229c-0.324,0.201 -0.324,0.201 -0.782,0.168c-0.436,-0.146 -0.436,-0.146 -0.793,-0.503c0.059,-0.589 0.111,-0.826 0.536,-1.251Z" style="fill:#34d399;fill-rule:nonzero;"/><path d="M72.288,4.737l0.686,-0.002c0.476,-0.001 0.951,-0.002 1.427,-0.002c0.48,0.001 0.959,-0.001 1.439,-0.003c3.58,-0.017 7.002,0.133 10.519,0.818l0.622,0.119c1.555,0.299 3.104,0.619 4.645,0.984c0.335,0.078 0.671,0.15 1.007,0.222c3.781,0.856 7.44,2.368 10.961,3.97l0.463,0.209c6.849,3.108 12.942,7.419 18.48,12.479l0.537,0.487c1.369,1.243 2.709,2.498 3.914,3.904c0.295,0.343 0.593,0.682 0.894,1.02c1.406,1.59 2.704,3.235 3.948,4.954l0.297,0.406c1.743,2.389 3.269,4.874 4.707,7.458l0.266,0.475c2.153,3.879 4.058,8.086 5.196,12.381l0.111,0.409c0.074,0.274 0.147,0.547 0.22,0.821c0.097,0.362 0.195,0.723 0.294,1.083c0.642,2.36 1.206,4.714 1.62,7.125l0.086,0.489c0.537,3.249 0.668,6.488 0.651,9.776l-0.002,0.582c-0.042,11.224 -2.537,21.959 -7.729,31.926c-0.181,0.35 -0.358,0.701 -0.535,1.053c-2.557,5.031 -5.971,9.723 -9.794,13.87c-0.328,0.359 -0.646,0.725 -0.964,1.094c-0.724,0.83 -1.495,1.608 -2.276,2.385l-0.412,0.414c-0.85,0.848 -1.724,1.654 -2.637,2.434l-0.548,0.477c-6.25,5.361 -13.425,9.402 -21.076,12.39l-0.537,0.212c-3.627,1.417 -7.385,2.422 -11.216,3.111c-0.37,0.068 -0.74,0.141 -1.109,0.216c-13.497,2.627 -28.224,0.394 -40.573,-5.504l-0.398,-0.19c-0.713,-0.343 -1.419,-0.698 -2.12,-1.063c-0.35,-0.182 -0.701,-0.359 -1.053,-0.535c-7.429,-3.777 -14.649,-9.498 -20.019,-15.905l-0.416,-0.477c-3.032,-3.485 -5.689,-7.31 -7.983,-11.318l-0.243,-0.421c-4.152,-7.25 -6.713,-14.97 -8.157,-23.169l-0.097,-0.545c-0.554,-3.323 -0.68,-6.654 -0.674,-10.017c0.001,-0.637 -0.003,-1.274 -0.008,-1.911c-0.044,-16.077 6.522,-31.816 16.977,-43.894c0.249,-0.29 0.493,-0.583 0.736,-0.877c1.019,-1.224 2.09,-2.379 3.216,-3.506l0.378,-0.378c0.814,-0.806 1.659,-1.566 2.526,-2.314c0.209,-0.185 0.417,-0.37 0.626,-0.555c1.577,-1.393 3.21,-2.679 4.914,-3.913l0.379,-0.276c1.727,-1.255 3.485,-2.418 5.34,-3.477l0.366,-0.21c0.942,-0.54 1.893,-1.064 2.851,-1.577l0.446,-0.239c2.743,-1.454 5.578,-2.617 8.489,-3.692l0.458,-0.17c3.659,-1.335 7.499,-2.231 11.337,-2.869l0.467,-0.078c0.466,-0.076 0.932,-0.15 1.399,-0.223l0.409,-0.065c2.079,-0.309 4.173,-0.376 6.272,-0.378Zm19.883,104.564c-0.005,0.004 -0.01,0.008 -0.015,0.012l0.302,0.03c3.315,0.479 6.616,1.07 9.885,1.745c1.133,0.244 2.24,0.437 3.395,0.548l0,-0.179l-0.465,-0.137l-0.64,-0.187c-2.089,-0.612 -4.221,-1.041 -6.354,-1.465c-0.317,-0.062 -0.634,-0.125 -0.951,-0.188c-1.91,-0.388 -3.799,-0.736 -5.741,-0.915c-0.526,-0.044 -1.05,-0.092 -1.575,-0.146c-0.403,-0.202 -0.403,-0.202 -1.906,-0.322l-0.63,-0.047c-1.721,-0.131 -3.423,-0.218 -5.149,-0.167c0.572,0.381 0.954,0.428 1.626,0.488c0.312,0.026 0.625,0.053 0.937,0.082l0.508,0.048c2.259,0.209 4.519,0.479 6.773,0.8Zm-25.864,0.543c-0.421,0.005 -0.421,0.005 -0.848,0.353l-0.411,0.489c-0.457,0.531 -0.846,1.021 -1.128,1.665c0.589,-0.197 0.589,-0.197 1.24,-0.905c0.347,-0.398 0.347,-0.398 0.726,-0.704c0.718,0 1.013,0.128 1.622,0.472c1.683,0.969 3.357,1.826 5.347,1.673l0,-0.179c-1.676,-0.553 -3.278,-1.158 -4.825,-2.01c-0.562,-0.32 -1.119,-0.619 -1.723,-0.854Zm25.641,-41.695l0.03,0.06c0.067,0.025 0.135,0.049 0.204,0.074c0.577,0.331 1.146,0.677 1.705,1.043l0.403,0.268c0.953,0.632 1.842,1.276 2.68,2.055c0.486,0.484 0.566,0.67 1.262,0.67c-1.411,-1.746 -3.049,-3.268 -5.145,-4.139l-0.19,-0.072l-0.097,-0.292l0.071,-0.143c0.949,-0.316 1.907,-0.459 2.877,-0.518c0.757,-0.022 1.516,-0.03 2.278,-0.025l0.564,0.007l-0,-0.179c-1.145,-0.462 -2.38,-0.698 -3.588,-0.612c-1.346,0.051 -2.684,0.392 -3.918,0.969l-0,0.358c0.29,0.156 0.578,0.315 0.864,0.476Zm-45.006,35.623l0,0.537c0.399,0.199 0.399,0.199 1.302,0.303l0.39,0.043l0.825,0.093c0.431,0.048 0.863,0.096 1.295,0.145c1.587,0.18 3.174,0.354 4.767,0.488l-0,-0.179c-2.856,-0.691 -5.644,-1.247 -8.579,-1.43Zm8.4,4.29c-0.458,-0.012 -0.887,-0.002 -1.34,0.065l-0.462,0.091l-0.504,0.098l-0.52,0.103c-0.607,0.118 -1.214,0.237 -1.821,0.357l-0.178,0.537c0.468,0.014 0.893,-0.001 1.356,-0.083l0.484,-0.113l0.529,-0.122l0.546,-0.129c0.637,-0.148 1.274,-0.297 1.91,-0.447l-0,-0.357Zm0.572,-20.113c-1.939,-0.873 -3.668,-0.672 -5.219,0.812c-0.749,1.224 -0.679,2.547 -0.536,3.931c0.356,1.844 1.131,3.767 2.667,4.936l0.371,0.247c0.787,0.53 1.565,0.992 2.519,1.124c1.781,0.125 3.624,0.046 5.08,-1.109c0.428,-0.603 0.428,-0.603 0.206,-2.097l-0.12,-0.599c-0.087,-0.487 -0.191,-0.951 -0.333,-1.425c-0.976,-2.596 -2.094,-4.565 -4.635,-5.82Zm1.751,1.348c0.392,0.33 0.602,0.635 0.894,1.072l-0,0.715l-0.537,0.357l0.179,1.073l1.251,0.178c0.053,1.748 0.009,3.284 -0.893,4.826c-0.358,0.357 -0.358,0.357 -0.76,0.379c-0.955,-0.39 -1.381,-1.223 -1.791,-2.135c-0.637,-1.794 -0.914,-4.041 -0.152,-5.84c0.45,-0.867 0.88,-0.898 1.809,-0.625Zm32.704,-1.609c-3.852,-2.372 -8.832,-2.291 -11.992,1.185c-1.665,2.084 -2.361,4.368 -2.126,7.036l0.179,0.179l0.335,0.391c1.472,1.456 3.612,2.107 5.64,2.178c2.512,-0.087 4.893,-0.968 6.719,-2.715c1.598,-1.775 2.237,-3.971 2.181,-6.327c-0.079,-0.919 -0.215,-1.313 -0.936,-1.927Zm-8.221,-0.357c0.503,0 0.503,0 1.073,0.179c0.541,0.541 0.982,1.006 1.072,1.787l-0.715,0.536c-0.025,0.522 -0.025,0.522 0.179,1.072c0.454,0.262 0.924,0.405 1.43,0.536c0.087,1.766 0.183,3.866 -0.976,5.335c-0.275,0.205 -0.275,0.205 -0.778,0.228c-0.996,-0.352 -1.399,-1.024 -1.908,-1.92c-0.865,-1.876 -1.04,-4.249 -0.438,-6.234c0.293,-0.599 0.591,-1.048 1.061,-1.519Zm17.872,-38.065l-0.414,0.346c-0.218,0.183 -0.438,0.366 -0.659,0.547c-0.948,0.746 -1.88,1.472 -2.68,2.379c-0.383,0.451 -0.768,0.895 -1.171,1.328c-2.574,2.739 -4.901,5.795 -6.652,9.129l-0.186,0.366c-0.43,0.841 -0.656,1.589 -0.748,2.525l0.178,-0c1.954,-3.514 4.031,-6.887 6.533,-10.04l0.258,-0.325c1.633,-2.093 3.506,-3.891 5.459,-5.677l0.439,-0.4l-0.357,-0.178Zm-34.481,53.903c-1.093,-0.016 -1.897,0.079 -2.87,0.603c-0.168,0.391 -0.168,0.391 -0.179,0.715c0.668,0.426 1.263,0.833 1.787,1.43c0.257,0.48 0.257,0.48 0.536,0.894c0.458,0.167 0.458,0.167 0.894,0.178l0.357,-0.357c0.122,-0.633 0.122,-0.633 0.358,-1.251l0.525,-0.235c0.547,-0.123 0.547,-0.123 1.083,-0.48c0.123,-0.469 0.123,-0.469 0.179,-0.894c-0.774,-0.467 -1.366,-0.604 -2.249,-0.609l-0.421,0.006Zm32.872,-40.321c-1.551,-0.081 -2.845,0.089 -4.285,0.681c-1.626,0.699 -4.109,1.517 -4.829,3.25c0.475,-0.242 0.952,-0.481 1.43,-0.718c0.238,-0.118 0.476,-0.236 0.714,-0.354c2.094,-1.061 4.113,-1.984 6.398,-2.548l0.572,-0.133l0,-0.178Zm-60.047,-44.678l-0.444,0.299c-1.966,1.329 -3.854,2.728 -5.668,4.257c-0.294,0.247 -0.592,0.488 -0.891,0.728c-1.527,1.244 -2.916,2.632 -4.311,4.02l-0.304,0.301c-1.277,1.268 -2.454,2.565 -3.572,3.977c-0.154,0.184 -0.31,0.367 -0.466,0.548c-5.147,6.001 -8.992,13.143 -11.687,20.54l-0.189,0.503c-0.422,1.129 -0.766,2.264 -1.073,3.428l-0.263,0.983l-0.13,0.494c-0.087,0.322 -0.176,0.644 -0.268,0.965c-0.366,1.289 -0.626,2.584 -0.858,3.903l-0.117,0.665c-0.305,1.768 -0.545,3.532 -0.676,5.322l-0.046,0.626c-0.12,1.758 -0.175,3.509 -0.177,5.271l-0.001,0.416c0.004,4.315 0.439,8.577 1.297,12.809l0.087,0.439c0.359,1.788 0.82,3.523 1.395,5.253c0.132,0.404 0.259,0.809 0.386,1.215c3.4,10.754 9.541,20.263 17.491,28.212c0.276,0.276 0.55,0.554 0.824,0.831c1.137,1.143 2.319,2.187 3.585,3.187c0.218,0.179 0.436,0.359 0.653,0.539c6.763,5.537 15.787,11.009 24.545,12.507l0.536,-0.179l-0.017,-0.439c-0.135,-4.086 0.289,-7.889 1.09,-11.892l0.135,-0.682c0.187,-0.932 0.38,-1.862 0.583,-2.79c0.547,-2.534 0.728,-5.489 -0.182,-7.965c-0.5,-0.774 -1.046,-1.126 -1.854,-1.553c-2.193,-1.197 -4.419,-2.719 -6.167,-4.511c-0.412,-0.415 -0.704,-0.696 -1.294,-0.784c-1.171,0.064 -2.272,0.497 -3.369,0.883c-0.586,0.205 -1.176,0.38 -1.773,0.547c-1.65,0.459 -3.242,1.045 -4.84,1.659l-0.532,0.204l-0.475,0.184c-0.379,0.137 -0.749,0.244 -1.141,0.333c3.6,-1.628 7.255,-3.097 11.08,-4.11l0.536,-0.179c-0.105,-0.6 -0.293,-0.886 -0.715,-1.318c-0.788,-0.862 -1.381,-1.827 -1.998,-2.814c-0.276,-0.479 -0.276,-0.479 -0.504,-0.693c-2.29,-0.298 -4.643,-0.238 -6.947,-0.28l-1.206,-0.023c-0.976,-0.019 -1.951,-0.037 -2.927,-0.055c1.362,-0.147 2.704,-0.203 4.073,-0.196l0.581,0.001c0.604,0.001 1.209,0.003 1.813,0.005l1.239,0.003c1.005,0.002 2.011,0.005 3.017,0.008c-0.171,-0.931 -0.503,-1.777 -0.848,-2.654c-1.127,-2.925 -0.756,-5.411 -0.068,-8.381c0.455,-1.985 0.821,-3.931 1.021,-5.959c0.083,-0.794 0.205,-1.563 0.386,-2.34l0.091,-0.397c1.462,-6.051 5.866,-11.378 10.855,-14.938l0.422,-0.307c0.274,-0.198 0.551,-0.393 0.829,-0.587c-0.292,-3.16 -3.334,-6.276 -5.361,-8.578l-0.238,-0.272c-1.303,-1.486 -2.655,-2.728 -4.252,-3.883l-0.318,-0.23c-0.634,-0.45 -1.264,-0.851 -1.983,-1.155l-0.358,0.179l0.466,0.315c1.482,1.021 2.82,2.126 4.113,3.378c0.211,0.204 0.425,0.404 0.64,0.604c2.456,2.336 4.874,5.628 6.219,8.748l-0,0.537c-0.872,-0.099 -1.503,-0.369 -2.279,-0.771c-1.579,-0.783 -3.451,-1.374 -5.227,-1.374l-0,0.357l0.394,0.086c1.945,0.452 3.966,1.08 5.503,2.416l0.179,0.537l-0.667,-0.019c-2.103,-0.042 -4.078,0.002 -5.945,1.091c0.391,0.245 0.391,0.245 0.994,0.011c1.309,-0.321 2.672,-0.218 4.01,-0.19c-0.535,0.639 -1.069,1.25 -1.665,1.832c-0.659,0.654 -1.235,1.351 -1.798,2.089l-0.302,0.394c-0.965,1.29 -1.75,2.656 -2.49,4.085l-0.222,0.404c-0.172,0.336 -0.172,0.336 -0.136,0.846l-0.357,0l-0.096,-0.297c-0.317,-0.968 -0.668,-1.917 -1.043,-2.863c-1.317,-3.368 -2.319,-6.67 -2.926,-10.237l-0.082,-0.481l-0.07,-0.428c-0.059,-0.36 -0.059,-0.36 -0.251,-0.705c-0.515,-2.483 -0.593,-5.025 -0.603,-7.551l-0.004,-0.402c-0.031,-3.778 -0.031,-3.778 0.965,-5.272c2.224,-0.616 5.199,1.26 7.079,2.295c4.155,2.381 8.046,5.297 11.728,8.346c0.472,0.39 0.946,0.778 1.42,1.165l0.444,0.364l0.416,0.34l0.423,0.401c0.704,0.469 1.273,0.392 2.089,0.25c0.397,-0.083 0.791,-0.175 1.186,-0.271c2.103,-0.504 4.053,-0.786 6.222,-0.703c0.458,0.01 0.915,0.02 1.372,0.03c0.712,0.017 1.423,0.035 2.134,0.064c2.683,0.258 2.683,0.258 5.137,-0.538c0.457,-0.499 0.77,-0.966 1.096,-1.556c0.266,-0.336 0.537,-0.668 0.815,-0.994l0.396,-0.49c0.511,-0.62 1.046,-1.215 1.588,-1.808c0.221,-0.245 0.442,-0.49 0.655,-0.742c1.01,-1.187 2.113,-2.282 3.214,-3.383c0.344,-0.344 0.686,-0.689 1.028,-1.035c1.252,-1.257 2.519,-2.431 3.92,-3.522c0.204,-0.166 0.408,-0.331 0.612,-0.498c3.797,-2.995 3.797,-2.995 5.962,-2.957c0.396,0.06 0.396,0.06 0.887,0.406c2.192,2.984 3.018,6.894 3.652,10.477l0.084,0.472c0.451,2.687 0.665,5.349 0.654,8.072l-0.001,0.44c-0.007,3.097 -0.096,6.29 -0.881,9.3c-0.226,1.267 0.162,2.053 0.71,3.171c1.112,2.357 1.987,4.786 2.863,7.239c0.158,0.438 0.316,0.875 0.474,1.312c0.42,1.163 0.838,2.325 1.247,3.491l0.204,0.578l0.197,0.568l0.176,0.506c1.043,3.738 -1.709,8.3 -3.462,11.424c-1.177,2.159 -0.497,4.414 0.159,6.687c1.372,4.367 3.381,7.948 6.206,11.537c1.074,1.37 2.035,2.784 2.953,4.263c1.578,-0.726 2.783,-2.213 3.997,-3.427c0.279,-0.279 0.56,-0.556 0.841,-0.834c1.149,-1.143 2.196,-2.331 3.204,-3.602c0.154,-0.184 0.31,-0.367 0.466,-0.548c5.076,-5.918 8.831,-12.921 11.5,-20.213c0.16,-0.434 0.324,-0.866 0.492,-1.297c5.717,-15.031 4.405,-33.093 -1.992,-47.673c-2.963,-6.56 -6.777,-12.613 -11.538,-18.016l-0.345,-0.392c-0.978,-1.1 -1.993,-2.158 -3.033,-3.198c-0.263,-0.263 -0.524,-0.528 -0.786,-0.792c-1.113,-1.121 -2.284,-2.14 -3.521,-3.124c-0.183,-0.154 -0.366,-0.309 -0.548,-0.466c-5.917,-5.075 -13.063,-8.947 -20.4,-11.512c-0.471,-0.165 -0.941,-0.335 -1.41,-0.507c-3.385,-1.207 -6.919,-1.98 -10.457,-2.582l-0.467,-0.08c-3.056,-0.487 -6.092,-0.641 -9.184,-0.624l-0.545,0.002c-13.015,0.052 -25.842,3.614 -36.694,10.944Zm67.196,84.173c-3.9,-0.048 -7.809,-0.136 -11.698,0.21l-0.388,0.036c-2.351,0.214 -4.684,0.526 -7.004,0.96l-0.58,0.112c-1.581,0.303 -3.119,0.634 -4.635,1.184c0.452,0.158 0.739,0.175 1.219,0.112l0.59,-0.126l0.675,-0.137c7.02,-1.453 14.177,-1.82 21.329,-1.983l0.492,-0.011l-0,-0.357Z" style="fill:#34d399;"/></svg>